<svg width="92" height="39" viewBox="0 0 92 39" fill="none" xmlns="http://www.w3.org/2000/svg">
<g clip-path="url(#clip0_5028_15143)">
<path d="M52.2904 15.3265C53.5596 15.3265 54.5885 14.3164 54.5885 13.0705C54.5885 11.8245 53.5596 10.8145 52.2904 10.8145C51.0211 10.8145 49.9922 11.8245 49.9922 13.0705C49.9922 14.3164 51.0211 15.3265 52.2904 15.3265Z" fill="#E62415"/>
<path d="M18.833 0.297852H21.8742V19.5503H18.833V0.297852ZM32.9504 13.6134C32.9504 16.5988 30.4621 16.8363 29.7018 16.8363C27.8011 16.8363 27.5246 15.0891 27.5246 14.0375V6.59093H24.4661V14.0205C24.4489 15.8694 24.9845 17.396 26.0213 18.4138C26.9629 19.2377 28.1624 19.722 29.4221 19.7868C30.6817 19.8515 31.9262 19.4929 32.9504 18.77V19.5503H36.0088V6.59093H32.9504V13.6134ZM42.6096 2.23157H39.5511V6.59093H37.4257V9.42366H39.5511V19.5503H42.6096V9.42366H45.1151V6.59093H42.6096V2.23157ZM55.0162 15.8694C54.325 16.4801 53.4092 16.8193 52.407 16.8193C51.8979 16.8335 51.3912 16.7452 50.9181 16.5599C50.445 16.3746 50.0156 16.0962 49.6562 15.7418C49.2969 15.3875 49.0152 14.9647 48.8286 14.4994C48.6419 14.0342 48.5543 13.5364 48.571 13.0367C48.571 10.8485 50.1434 9.32189 52.407 9.32189C53.3919 9.32189 54.325 9.64418 55.0335 10.2548L55.5173 10.6619L57.66 8.55858L57.1243 8.08363C55.8268 6.94754 54.1457 6.32491 52.407 6.33649C48.4327 6.33649 45.5471 9.15226 45.5471 13.0197C45.526 13.9113 45.6887 14.7979 46.0255 15.6261C46.3624 16.4544 46.8663 17.2073 47.5071 17.8395C48.1479 18.4717 48.9123 18.9702 49.7543 19.305C50.5964 19.6398 51.4987 19.804 52.407 19.7877C54.2214 19.7877 55.9147 19.1601 57.1589 18.0236L57.6772 17.5487L55.5 15.4453L55.0162 15.8694ZM69.1335 7.72742C68.1919 6.90347 66.9924 6.41918 65.7327 6.35442C64.4731 6.28967 63.2286 6.64831 62.2045 7.3712V0.297852H59.146V19.5503H62.2045V12.5448C62.2045 9.55936 64.6927 9.32189 65.453 9.32189C67.3537 9.32189 67.6302 11.069 67.6302 12.1207V19.5672H70.6887V12.1207C70.7809 10.5122 70.222 8.93313 69.1335 7.72742ZM14.3231 14.9365C13.7281 15.5365 13.0159 16.0125 12.2291 16.336C11.4423 16.6596 10.5971 16.8239 9.74405 16.8193C6.20176 16.8193 3.62712 14.0883 3.62712 10.3396C3.62712 6.57397 6.20176 3.84301 9.74405 3.84301C11.4547 3.84301 13.079 4.50455 14.3058 5.70888L14.7896 6.18383L16.915 4.09745L16.4485 3.6225C15.5717 2.74713 14.5252 2.05299 13.3708 1.58104C12.2164 1.10908 10.9773 0.868873 9.72677 0.874576C4.52565 0.874576 0.585938 4.94557 0.585938 10.3566C0.585938 15.7337 4.52565 19.8047 9.72677 19.8047C12.3014 19.8047 14.686 18.8209 16.4485 17.0398L16.915 16.5649L14.8069 14.4446L14.3231 14.9365Z" fill="#17313B"/>
</g>
<path d="M11.5216 31.844C11.4326 31.5572 11.1966 31.3494 10.9122 31.3058L8.03245 30.8672L6.74446 28.1348C6.49029 27.5944 5.64655 27.5944 5.39238 28.1348L4.10439 30.8672L1.23144 31.3058C0.947184 31.3492 0.711174 31.5579 0.622902 31.844C0.533936 32.1308 0.608556 32.4446 0.814486 32.6539L2.89727 34.7756L2.40639 37.7783C2.35815 38.0746 2.4743 38.3749 2.7065 38.5519C2.9395 38.7282 3.24712 38.7511 3.50129 38.6112L6.06813 37.1928L8.6426 38.6112C8.75274 38.672 8.8734 38.7021 8.99326 38.7021C9.14933 38.7021 9.30539 38.6515 9.43821 38.552C9.67052 38.3742 9.78655 38.0747 9.73831 37.7784L9.24743 34.7757L11.3302 32.654C11.5359 32.4453 11.6105 32.1301 11.5216 31.844Z" fill="#F5C74D"/>
<path d="M27.3731 31.844C27.2842 31.5572 27.0482 31.3494 26.7638 31.3058L23.884 30.8672L22.596 28.1348C22.3418 27.5944 21.4981 27.5944 21.2439 28.1348L19.956 30.8672L17.083 31.3058C16.7987 31.3492 16.5627 31.5579 16.4745 31.844C16.3855 32.1308 16.4601 32.4446 16.666 32.6539L18.7488 34.7756L18.258 37.7783C18.2097 38.0746 18.3259 38.3749 18.5581 38.5519C18.7911 38.7282 19.0987 38.7511 19.3529 38.6112L21.9197 37.1928L24.4942 38.6112C24.6043 38.672 24.725 38.7021 24.8448 38.7021C25.0009 38.7021 25.157 38.6515 25.2898 38.552C25.5221 38.3742 25.6381 38.0747 25.5899 37.7784L25.099 34.7757L27.1818 32.654C27.3875 32.4453 27.4621 32.1301 27.3731 31.844Z" fill="#F5C74D"/>
<path d="M43.2169 31.844C43.1279 31.5572 42.8919 31.3494 42.6075 31.3058L39.7278 30.8672L38.4398 28.1348C38.1856 27.5944 37.3419 27.5944 37.0877 28.1348L35.7997 30.8672L32.9267 31.3058C32.6425 31.3492 32.4065 31.5579 32.3182 31.844C32.2292 32.1308 32.3039 32.4446 32.5098 32.6539L34.5926 34.7756L34.1017 37.7783C34.0535 38.0746 34.1696 38.3749 34.4018 38.5519C34.6348 38.7282 34.9424 38.7511 35.1966 38.6112L37.7634 37.1928L40.3379 38.6112C40.4481 38.672 40.5687 38.7021 40.6886 38.7021C40.8446 38.7021 41.0007 38.6515 41.1335 38.552C41.3658 38.3742 41.4819 38.0747 41.4336 37.7784L40.9427 34.7757L43.0255 32.654C43.2312 32.4453 43.3058 32.1301 43.2169 31.844Z" fill="#F5C74D"/>
<path d="M59.0684 31.844C58.9795 31.5572 58.7435 31.3494 58.4591 31.3058L55.5793 30.8672L54.2913 28.1348C54.0372 27.5944 53.1934 27.5944 52.9393 28.1348L51.6513 30.8672L48.7783 31.3058C48.4941 31.3492 48.258 31.5579 48.1698 31.844C48.0808 32.1308 48.1554 32.4446 48.3614 32.6539L50.4441 34.7756L49.9533 37.7783C49.905 38.0746 50.0212 38.3749 50.2534 38.5519C50.4864 38.7282 50.794 38.7511 51.0482 38.6112L53.615 37.1928L56.1895 38.6112C56.2996 38.672 56.4203 38.7021 56.5401 38.7021C56.6962 38.7021 56.8523 38.6515 56.9851 38.552C57.2174 38.3742 57.3334 38.0747 57.2852 37.7784L56.7943 34.7757L58.8771 32.654C59.0828 32.4453 59.1574 32.1301 59.0684 31.844Z" fill="#F5C74D"/>
<path d="M74.92 31.844C74.831 31.5572 74.595 31.3494 74.3107 31.3058L71.4309 30.8672L70.1429 28.1348C69.8887 27.5944 69.045 27.5944 68.7908 28.1348L67.5028 30.8672L64.6299 31.3058C64.3456 31.3492 64.1096 31.5579 64.0213 31.844C63.9324 32.1308 64.007 32.4446 64.2129 32.6539L66.2957 34.7756L65.8048 37.7783C65.7566 38.0746 65.8727 38.3749 66.1049 38.5519C66.3379 38.7282 66.6456 38.7511 66.8997 38.6112L69.4666 37.1928L72.041 38.6112C72.1512 38.672 72.2718 38.7021 72.3917 38.7021C72.5478 38.7021 72.7038 38.6515 72.8366 38.552C73.069 38.3742 73.185 38.0747 73.1367 37.7784L72.6459 34.7757L74.7287 32.654C74.9344 32.4453 75.009 32.1301 74.92 31.844Z" fill="#F5C74D"/>
<path d="M78.25 35.2221L80.65 30.6721H82.15L79.69 35.2221H78.25ZM78.25 36.0221V35.2221L78.75 34.8321H83.79V36.0221H78.25ZM81.57 37.7021V33.2221H82.91V37.7021H81.57ZM85.2027 37.8021C84.9627 37.8021 84.766 37.7221 84.6127 37.5621C84.4593 37.4021 84.3827 37.2055 84.3827 36.9721C84.3827 36.7388 84.4593 36.5421 84.6127 36.3821C84.766 36.2221 84.9627 36.1421 85.2027 36.1421C85.436 36.1421 85.6293 36.2221 85.7827 36.3821C85.936 36.5421 86.0127 36.7388 86.0127 36.9721C86.0127 37.2055 85.936 37.4021 85.7827 37.5621C85.6293 37.7221 85.436 37.8021 85.2027 37.8021ZM87.4429 37.7021L89.5829 34.7221L90.0729 34.5721C89.9929 34.7255 89.8996 34.8621 89.7929 34.9821C89.6929 35.0955 89.5629 35.1821 89.4029 35.2421C89.2429 35.3021 89.0329 35.3321 88.7729 35.3321C88.3596 35.3321 87.9796 35.2355 87.6329 35.0421C87.2929 34.8421 87.0196 34.5688 86.8129 34.2221C86.6062 33.8755 86.5029 33.4788 86.5029 33.0321C86.5029 32.5788 86.6162 32.1655 86.8429 31.7921C87.0696 31.4121 87.3762 31.1121 87.7629 30.8921C88.1496 30.6721 88.5796 30.5621 89.0529 30.5621C89.5329 30.5621 89.9629 30.6721 90.3429 30.8921C90.7296 31.1121 91.0329 31.4055 91.2529 31.7721C91.4796 32.1388 91.5929 32.5488 91.5929 33.0021C91.5929 33.6221 91.3762 34.2488 90.9429 34.8821L88.9929 37.7021H87.4429ZM89.0529 34.2921C89.2862 34.2921 89.4929 34.2388 89.6729 34.1321C89.8529 34.0255 89.9929 33.8788 90.0929 33.6921C90.1996 33.4988 90.2529 33.2855 90.2529 33.0521C90.2529 32.8055 90.1996 32.5888 90.0929 32.4021C89.9929 32.2155 89.8529 32.0688 89.6729 31.9621C89.4929 31.8488 89.2862 31.7921 89.0529 31.7921C88.8196 31.7921 88.6096 31.8488 88.4229 31.9621C88.2429 32.0688 88.0996 32.2155 87.9929 32.4021C87.8929 32.5888 87.8429 32.8055 87.8429 33.0521C87.8429 33.2921 87.8929 33.5055 87.9929 33.6921C88.0996 33.8788 88.2462 34.0255 88.4329 34.1321C88.6196 34.2388 88.8262 34.2921 89.0529 34.2921Z" fill="black"/>
<defs>
<clipPath id="clip0_5028_15143">
<rect width="70.1027" height="19.5068" fill="white" transform="translate(0.585938 0.297852)"/>
</clipPath>
</defs>
</svg>
