<?xml version="1.0" encoding="utf-8"?>
<!-- Generator: Adobe Illustrator 23.0.1, SVG Export Plug-In . SVG Version: 6.00 Build 0)  -->
<svg version="1.1" id="Layer_1" xmlns="http://www.w3.org/2000/svg" xmlns:xlink="http://www.w3.org/1999/xlink" x="0px" y="0px"
	 viewBox="0 0 98.1 36.2" style="enable-background:new 0 0 98.1 36.2;" xml:space="preserve" width="115" height="46">
<style type="text/css">
	.st0{clip-path:url(#SVGID_2_);}
	.st1{clip-path:url(#SVGID_4_);}
	.st2{fill:#201F1F;}
	.st3{fill:#FFFFFF;}
	.st4{fill-rule:evenodd;clip-rule:evenodd;fill:#201F1F;}
	.st5{fill-rule:evenodd;clip-rule:evenodd;fill:#FFFFFF;}
	.st6{fill-rule:evenodd;clip-rule:evenodd;fill:#84858C;}
	.st7{fill-rule:evenodd;clip-rule:evenodd;fill:#0D55A3;}
	.st8{fill-rule:evenodd;clip-rule:evenodd;fill:#FFE836;}
	.st9{fill:#FFE836;}
	.st10{fill:#0D55A3;}
</style>
<g>
	<defs>
		<rect id="SVGID_1_" width="98.1" height="36.2"/>
	</defs>
	<clipPath id="SVGID_2_">
		<use xlink:href="#SVGID_1_"  style="overflow:visible;"/>
	</clipPath>
	<g class="st0">
		<g>
			<defs>
				<rect id="SVGID_3_" width="98.1" height="36.2"/>
			</defs>
			<clipPath id="SVGID_4_">
				<use xlink:href="#SVGID_3_"  style="overflow:visible;"/>
			</clipPath>
			<g class="st1">
				<path class="st2" d="M2.6,28c0,0,0.2-0.8,0.6-1.4C3.5,26,4,25.6,4.1,25.6C4.8,25,5.8,25,5.8,25h9.5l8.8,0l11.1,0l8.3,0l8.2,0
					h8.2h13.2h20.3c0,0,0.8,0,1.1,0.5c0.6,0.8,0.3,1.6,0.3,1.6l-1.9,5.7c0,0-0.3,1.2-1,1.9c-1.2,1.1-2.1,1-2.1,1l-0.3,0.1l-11.6,0
					H69H56.4H43.3l-9.5,0l-9.8,0l-12.7,0l-9.3,0c0,0-0.9-0.2-1.2-0.8c-0.4-0.8,0-1.5,0-1.5L2.6,28z"/>
				<path class="st3" d="M90.7,28.8c0.3-1.8-1.5-2.5-4.6-2.5c-3.8,0-4.8,1.5-5,2.5c-0.3,1.2,0.2,2,1.9,2.2l2.8,0.4
					c1,0.1,1.3,0.3,1.2,0.7c-0.2,0.7-1,0.8-1.7,0.8c-1.5,0-1.8-0.4-1.7-1h-3.4c-0.3,2.2,1.7,2.6,4.6,2.6c1.2,0,5,0,5.6-2.7
					c0.3-1.4-0.5-2-2-2.2c-0.8-0.1-2.9-0.4-3.6-0.5c-0.4-0.1-0.6-0.2-0.5-0.5c0.1-0.5,0.7-0.8,1.7-0.8c1.3,0,1.7,0.4,1.7,0.9H90.7z"
					/>
				<path class="st3" d="M71.4,28.2h3l-1.4,6h2.7l1.4-6h3l0.4-1.7h-8.8L71.4,28.2z"/>
				<path class="st3" d="M68.3,26.5h-6.8l-1.8,7.6h2.8l0.6-2.5h2.6c0.7,0,1.1,0.2,0.8,1.4c-0.1,0.4-0.2,0.8-0.1,1.1h3.1
					c-0.3-0.4-0.2-0.9,0-2.4c0.1-0.8-0.2-1.2-0.7-1.4l0,0c0.8-0.2,1.5-0.7,1.8-1.7C70.9,27.3,70.4,26.5,68.3,26.5z M67.5,29
					c-0.1,0.5-0.6,0.8-1.3,0.8h-2.7l0.4-1.7h2.7C67.3,28.2,67.6,28.5,67.5,29z"/>
				<path class="st3" d="M57.4,26.5H54l-5.3,7.8h2.9l0.8-1.3H56l0.2,1.3h2.9L57.4,26.5z M53.4,31.4l1.8-2.9h0l0.5,2.9H53.4z"/>
				<path class="st3" d="M48.1,26.4h-6.2l-1.8,7.9h2.8l0.6-2.6h3.5c2.3,0,3.3-1.3,3.6-2.6C51,27.5,50.4,26.4,48.1,26.4z M47.7,29
					c-0.2,0.7-0.6,1-1.3,1h-2.5l0.4-2h2.5C47.6,28,47.9,28.3,47.7,29z"/>
				<path class="st3" d="M34,26.3h-6.7l-1.8,8.1h2.8l0.6-2.7h2.6c0.7,0,1.1,0.2,0.8,1.5c-0.1,0.4-0.2,0.8-0.1,1.2h3.1
					c-0.3-0.4-0.2-0.9,0-2.5c0.1-0.9-0.2-1.3-0.7-1.4l0,0c0.8-0.2,1.5-0.8,1.7-1.8C36.6,27.2,36,26.3,34,26.3z M33.2,28.9
					c-0.1,0.6-0.6,0.9-1.2,0.9h-2.7l0.4-1.8h2.7C33,28.1,33.3,28.4,33.2,28.9z"/>
				<path class="st3" d="M23.1,26.3h-3.4l-5.4,8.1h3L18,33h3.7l0.2,1.3h3L23.1,26.3z M19.1,31.4l1.8-3.1h0l0.5,3.1H19.1z"/>
				<path class="st3" d="M11.9,31.2c-0.4,0.9-1.3,1.6-2.5,1.6c-1.8,0-2.1-1.1-1.8-2.5c0.3-1.3,1.1-2.5,2.9-2.5c1.6,0,1.8,1,1.8,1.6
					h3.1c0-2.8-2-3.4-4.6-3.4c-3.6,0-5.6,1.6-6.2,4.3c-0.6,2.8,0.8,4.3,4.3,4.3c4,0,5.3-1.6,6.1-3.4H11.9z"/>
				<path class="st4" d="M87.8,0.2c-4.6-0.9-10,0.7-12.8,5.1C74.1,4.5,72,2.6,72,2.6s-3.4,2.3-5.6,3.8C66.5,6.1,67.6,3,67.6,3H44
					l-0.3,1.7c-0.4,2.1-1.4,5.5-2.3,6.5c-0.6,0.6-1.6,1.1-2.8,1.3c0.9-2.8,3-9.5,3-9.5L29.2,3l-0.3,1.8c-0.5,3.1-1.9,8-3.4,9.4
					c-1.2,1.1-3.2,1.7-5.4,1.5c0.3-0.3,7.6-7.6,7.6-7.6l-0.6-1.3C24.7,1.2,18-0.6,12.8,0.4C6.9,1.5,3.2,5.8,2.9,11.5
					c-0.1,3.2,1.1,6.1,3.5,8.3c2.2,2,5,3.2,8.1,3.5c4.5,0.3,8-1,10.6-2.4c1.7,1.5,4.1,2.2,6.7,1.8c2.2-0.4,4.3-1.5,6.3-2.5
					c0,0,0,0,0,0c-0.1,0.3-0.8,2.6-0.8,2.6l8.3,0l2.4-1.3l-0.5,1.3l13,0l0.4-1.5c0.7-2.5,1.8-5.6,2.3-6.3c0,0,0.1-0.1,0.1-0.1
					c0.3-0.1,1.4,0.5,1.8,1.3l1,1.9c0,0,6.2-3.2,7.3-3.8c0.5,2.8,2,5.2,4.4,6.9c3.7,2.6,8.9,3.1,13,1.2c3.8-1.8,6-5.2,6.3-9.7
					C97.8,5.4,92.9,1.2,87.8,0.2z"/>
				<path class="st5" d="M45.7,5.1c0,0-1.1,5.7-2.9,7.6c-1.6,1.6-4.4,2.3-7.2,2c1-3.2,3-9.6,3-9.6H31c0,0-1.4,8-4,10.6
					c-2.5,2.4-7.2,2.8-11.2,1.3c3.1-3.1,6.4-6.1,9.4-9.3c-3.7-8.2-19.7-7.3-20.2,4c-0.2,5.4,4.5,9.2,9.7,9.6c4.5,0.3,8.1-1.2,11-3
					c0.9,1.8,3.3,2.9,5.8,2.4c3.4-0.6,7.2-3.6,10.1-4.2c-0.4,1.4-1.3,4.2-1.3,4.2l4.9,0l3.9-2.2c0,0,3.2-8.9,4.8-13.4L45.7,5.1z
					 M13.7,14.1c-4-3.5,1.3-9.4,5.3-5.5L13.7,14.1z M75.7,8.7c-1.4-1.1-3.9-3.4-3.9-3.4s-6.5,4.4-9.6,6.2c0.8-2.1,1.6-4.3,2.3-6.4
					h-8.4c-1.8,5.2-3.7,10.3-5.5,15.5h8.4c0,0,1.6-5.6,2.6-6.9c1.5-2,4.5-0.4,5.5,1.5c2.7-1.4,5.7-3.1,8.4-4.2
					c-1.4,12.5,18.7,14.7,19.6,1.5C96,0.3,78.9-1.4,75.7,8.7z M88.4,16.4l-3-2l-3,2.1l1.1-3.3l-2.9-2.6h3.6l1.1-3.2l1.2,3.2h3.7
					l-3,2.4L88.4,16.4z"/>
				<path class="st6" d="M2.6,28c0,0,0.2-0.8,0.6-1.4C3.5,26,4,25.6,4.1,25.6C4.8,25,5.8,25,5.8,25h9.5l8.8,0l11.1,0l8.3,0l8.2,0
					h8.2h13.2h20.3c0,0,0.8,0,1.1,0.5c0.6,0.8,0.3,1.6,0.3,1.6l-1.9,5.7c0,0-0.3,1.2-1,1.9c-1.2,1.1-2.1,1-2.1,1l-0.3,0.1l-11.6,0
					H69H56.4H43.3l-9.5,0l-9.8,0l-12.7,0l-9.3,0c0,0-0.9-0.2-1.2-0.8c-0.4-0.8,0-1.5,0-1.5L2.6,28z"/>
				<path class="st5" d="M90.7,28.8c0.3-1.8-1.5-2.5-4.6-2.5c-3.8,0-4.8,1.5-5,2.5c-0.3,1.2,0.2,2,1.9,2.2l2.8,0.4
					c1,0.1,1.3,0.3,1.2,0.7c-0.2,0.7-1,0.8-1.7,0.8c-1.5,0-1.8-0.4-1.7-1h-3.4c-0.3,2.2,1.7,2.6,4.6,2.6c1.2,0,5,0,5.6-2.7
					c0.3-1.4-0.5-2-2-2.2c-0.8-0.1-2.9-0.4-3.6-0.5c-0.4-0.1-0.6-0.2-0.5-0.5c0.1-0.5,0.7-0.8,1.7-0.8c1.3,0,1.7,0.4,1.7,0.9H90.7z"
					/>
				<path class="st5" d="M71.4,28.2h3l-1.4,6h2.7l1.4-6h3l0.4-1.7h-8.8L71.4,28.2z"/>
				<path class="st3" d="M68.3,26.5h-6.8l-1.8,7.6h2.8l0.6-2.5h2.6c0.7,0,1.1,0.2,0.8,1.4c-0.1,0.4-0.2,0.8-0.1,1.1h3.1
					c-0.3-0.4-0.2-0.9,0-2.4c0.1-0.8-0.2-1.2-0.7-1.4l0,0c0.8-0.2,1.5-0.7,1.8-1.7C70.9,27.3,70.4,26.5,68.3,26.5z M67.5,29
					c-0.1,0.5-0.6,0.8-1.3,0.8h-2.7l0.4-1.7h2.7C67.3,28.2,67.6,28.5,67.5,29z"/>
				<path class="st3" d="M57.4,26.5H54l-5.3,7.8h2.9l0.8-1.3H56l0.2,1.3h2.9L57.4,26.5z M53.4,31.4l1.8-2.9h0l0.5,2.9H53.4z"/>
				<path class="st3" d="M48.1,26.4h-6.2l-1.8,7.9h2.8l0.6-2.6h3.5c2.3,0,3.3-1.3,3.6-2.6C51,27.5,50.4,26.4,48.1,26.4z M47.7,29
					c-0.2,0.7-0.6,1-1.3,1h-2.5l0.4-2h2.5C47.6,28,47.9,28.3,47.7,29z"/>
				<path class="st3" d="M34,26.3h-6.7l-1.8,8.1h2.8l0.6-2.7h2.6c0.7,0,1.1,0.2,0.8,1.5c-0.1,0.4-0.2,0.8-0.1,1.2h3.1
					c-0.3-0.4-0.2-0.9,0-2.5c0.1-0.9-0.2-1.3-0.7-1.4l0,0c0.8-0.2,1.5-0.8,1.7-1.8C36.6,27.2,36,26.3,34,26.3z M33.2,28.9
					c-0.1,0.6-0.6,0.9-1.2,0.9h-2.7l0.4-1.8h2.7C33,28.1,33.3,28.4,33.2,28.9z"/>
				<path class="st3" d="M23.1,26.3h-3.4l-5.4,8.1h3L18,33h3.7l0.2,1.3h3L23.1,26.3z M19.1,31.4l1.8-3.1h0l0.5,3.1H19.1z"/>
				<path class="st5" d="M11.9,31.2c-0.4,0.9-1.3,1.6-2.5,1.6c-1.8,0-2.1-1.1-1.8-2.5c0.3-1.3,1.1-2.5,2.9-2.5c1.6,0,1.8,1,1.8,1.6
					h3.1c0-2.8-2-3.4-4.6-3.4c-3.6,0-5.6,1.6-6.2,4.3c-0.6,2.8,0.8,4.3,4.3,4.3c4,0,5.3-1.6,6.1-3.4H11.9z"/>
				<path class="st6" d="M87.8,0.2c-4.6-0.9-10,0.7-12.8,5.1C74.1,4.5,72,2.6,72,2.6s-3.4,2.3-5.6,3.8C66.5,6.1,67.6,3,67.6,3H44
					l-0.3,1.7c-0.4,2.1-1.4,5.5-2.3,6.5c-0.6,0.6-1.6,1.1-2.8,1.3c0.9-2.8,3-9.5,3-9.5L29.2,3l-0.3,1.8c-0.5,3.1-1.9,8-3.4,9.4
					c-1.2,1.1-3.2,1.7-5.4,1.5c0.3-0.3,7.6-7.6,7.6-7.6l-0.6-1.3C24.7,1.2,18-0.6,12.8,0.4C6.9,1.5,3.2,5.8,2.9,11.5
					c-0.1,3.2,1.1,6.1,3.5,8.3c2.2,2,5,3.2,8.1,3.5c4.5,0.3,8-1,10.6-2.4c1.7,1.5,4.1,2.2,6.7,1.8c2.2-0.4,4.3-1.5,6.3-2.5
					c0,0,0,0,0,0c-0.1,0.3-0.8,2.6-0.8,2.6l8.3,0l2.4-1.3l-0.5,1.3l13,0l0.4-1.5c0.7-2.5,1.8-5.6,2.3-6.3c0,0,0.1-0.1,0.1-0.1
					c0.3-0.1,1.4,0.5,1.8,1.3l1,1.9c0,0,6.2-3.2,7.3-3.8c0.5,2.8,2,5.2,4.4,6.9c3.7,2.6,8.9,3.1,13,1.2c3.8-1.8,6-5.2,6.3-9.7
					C97.8,5.4,92.9,1.2,87.8,0.2z"/>
				<path class="st5" d="M45.7,5.1c0,0-1.1,5.7-2.9,7.6c-1.6,1.6-4.4,2.3-7.2,2c1-3.2,3-9.6,3-9.6H31c0,0-1.4,8-4,10.6
					c-2.5,2.4-7.2,2.8-11.2,1.3c3.1-3.1,6.4-6.1,9.4-9.3c-3.7-8.2-19.7-7.3-20.2,4c-0.2,5.4,4.5,9.2,9.7,9.6c4.5,0.3,8.1-1.2,11-3
					c0.9,1.8,3.3,2.9,5.8,2.4c3.4-0.6,7.2-3.6,10.1-4.2c-0.4,1.4-1.3,4.2-1.3,4.2l4.9,0l3.9-2.2c0,0,3.2-8.9,4.8-13.4L45.7,5.1z
					 M13.7,14.1c-4-3.5,1.3-9.4,5.3-5.5L13.7,14.1z M75.7,8.7c-1.4-1.1-3.9-3.4-3.9-3.4s-6.5,4.4-9.6,6.2c0.8-2.1,1.6-4.3,2.3-6.4
					h-8.4c-1.8,5.2-3.7,10.3-5.5,15.5h8.4c0,0,1.6-5.6,2.6-6.9c1.5-2,4.5-0.4,5.5,1.5c2.7-1.4,5.7-3.1,8.4-4.2
					c-1.4,12.5,18.7,14.7,19.6,1.5C96,0.3,78.9-1.4,75.7,8.7z M88.4,16.4l-3-2l-3,2.1l1.1-3.3l-2.9-2.6h3.6l1.1-3.2l1.2,3.2h3.7
					l-3,2.4L88.4,16.4z"/>
				<path class="st7" d="M2.6,28c0,0,0.2-0.8,0.6-1.4C3.5,26,4,25.6,4.1,25.6C4.8,25,5.8,25,5.8,25h9.5l8.8,0l11.1,0l8.3,0l8.2,0
					h8.2h13.2h20.3c0,0,0.8,0,1.1,0.5c0.6,0.8,0.3,1.6,0.3,1.6l-1.9,5.7c0,0-0.3,1.2-1,1.9c-1.2,1.1-2.1,1-2.1,1l-0.3,0.1l-11.6,0
					H69H56.4H43.3l-9.5,0l-9.8,0l-12.7,0l-9.3,0c0,0-0.9-0.2-1.2-0.8c-0.4-0.8,0-1.5,0-1.5L2.6,28z"/>
				<path class="st8" d="M90.7,28.8c0.3-1.8-1.5-2.5-4.6-2.5c-3.8,0-4.8,1.5-5,2.5c-0.3,1.2,0.2,2,1.9,2.2l2.8,0.4
					c1,0.1,1.3,0.3,1.2,0.7c-0.2,0.7-1,0.8-1.7,0.8c-1.5,0-1.8-0.4-1.7-1h-3.4c-0.3,2.2,1.7,2.6,4.6,2.6c1.2,0,5,0,5.6-2.7
					c0.3-1.4-0.5-2-2-2.2c-0.8-0.1-2.9-0.4-3.6-0.5c-0.4-0.1-0.6-0.2-0.5-0.5c0.1-0.5,0.7-0.8,1.7-0.8c1.3,0,1.7,0.4,1.7,0.9
					L90.7,28.8z"/>
				<path class="st8" d="M71.4,28.2h3l-1.4,6h2.7l1.4-6h3l0.4-1.7h-8.8L71.4,28.2z"/>
				<path class="st9" d="M68.3,26.5h-6.8l-1.8,7.6h2.8l0.6-2.5h2.6c0.7,0,1.1,0.2,0.8,1.4c-0.1,0.4-0.2,0.8-0.1,1.1h3.1
					c-0.3-0.4-0.2-0.9,0-2.4c0.1-0.8-0.2-1.2-0.7-1.4l0,0c0.8-0.2,1.5-0.7,1.8-1.7C70.9,27.3,70.4,26.5,68.3,26.5z M67.5,29
					c-0.1,0.5-0.6,0.8-1.3,0.8h-2.7l0.4-1.7h2.7C67.3,28.2,67.6,28.5,67.5,29z"/>
				<path class="st9" d="M57.4,26.5H54l-5.3,7.8h2.9l0.8-1.3H56l0.2,1.3h3L57.4,26.5z M53.4,31.4l1.8-2.9h0l0.5,2.9H53.4z"/>
				<path class="st9" d="M48.1,26.4h-6.2l-1.8,7.9h2.8l0.6-2.6h3.5c2.3,0,3.3-1.3,3.6-2.6C51,27.5,50.4,26.4,48.1,26.4z M47.7,29
					c-0.2,0.7-0.6,1-1.3,1h-2.5l0.4-2h2.5C47.6,28,47.9,28.3,47.7,29z"/>
				<path class="st9" d="M34,26.3h-6.7l-1.8,8.1h2.8l0.6-2.7h2.6c0.7,0,1.1,0.2,0.8,1.5c-0.1,0.4-0.2,0.9-0.1,1.2h3.1
					c-0.3-0.4-0.2-0.9,0-2.5c0.1-0.9-0.2-1.3-0.7-1.5l0,0c0.8-0.2,1.5-0.8,1.7-1.8C36.6,27.2,36,26.3,34,26.3z M33.2,28.9
					c-0.1,0.6-0.6,0.9-1.2,0.9h-2.7l0.4-1.8h2.7C33,28.1,33.3,28.4,33.2,28.9z"/>
				<path class="st9" d="M23.1,26.3h-3.4l-5.4,8.1h3L18,33h3.7l0.2,1.3h3L23.1,26.3z M19.1,31.3l1.8-3.1h0l0.5,3.1H19.1z"/>
				<path class="st8" d="M11.9,31.2c-0.4,0.9-1.3,1.6-2.5,1.6c-1.8,0-2.1-1.1-1.8-2.5c0.3-1.3,1.1-2.5,2.9-2.5c1.6,0,1.8,1,1.8,1.6
					h3.1c0-2.8-2-3.4-4.6-3.4c-3.6,0-5.6,1.6-6.2,4.3c-0.6,2.8,0.8,4.3,4.3,4.3c4,0,5.3-1.6,6.1-3.4H11.9z"/>
				<path class="st7" d="M87.8,0.2c-4.6-0.9-10,0.7-12.8,5.1C74.1,4.5,72,2.6,72,2.6s-3.4,2.3-5.6,3.8C66.5,6.1,67.6,3,67.6,3L44,3
					l-0.3,1.7c-0.4,2.1-1.4,5.5-2.3,6.5c-0.6,0.6-1.6,1.1-2.8,1.3c0.9-2.8,3-9.5,3-9.5L29.2,3l-0.3,1.8c-0.5,3.1-1.9,8-3.4,9.4
					c-1.2,1.1-3.2,1.7-5.4,1.6c0.3-0.3,7.6-7.6,7.6-7.6l-0.6-1.3C24.7,1.2,18-0.6,12.8,0.4C6.9,1.5,3.2,5.8,2.9,11.5
					c-0.1,3.2,1.1,6.1,3.5,8.3c2.2,2,5,3.2,8.1,3.5c4.5,0.3,8-1,10.6-2.4c1.7,1.5,4.1,2.2,6.7,1.8c2.2-0.4,4.3-1.5,6.3-2.5
					c0,0,0,0,0,0c-0.1,0.3-0.8,2.6-0.8,2.6l8.3,0l2.4-1.3l-0.5,1.3l13,0l0.4-1.5c0.7-2.5,1.8-5.6,2.3-6.3c0,0,0.1-0.1,0.1-0.1
					c0.3-0.1,1.4,0.5,1.8,1.3l1,1.9c0,0,6.2-3.2,7.3-3.8c0.5,2.8,2,5.2,4.4,6.9c3.7,2.6,8.9,3.1,13,1.2c3.8-1.8,6-5.2,6.3-9.7
					C97.8,5.4,92.9,1.2,87.8,0.2z"/>
				<path class="st9" d="M45.7,5.1c0,0-1.1,5.7-2.9,7.6c-1.6,1.6-4.4,2.3-7.2,2c1-3.2,3-9.6,3-9.6H31c0,0-1.4,8-4,10.6
					c-2.5,2.4-7.2,2.8-11.2,1.3c3.1-3.1,6.4-6.1,9.4-9.3c-3.7-8.2-19.7-7.3-20.2,4c-0.2,5.4,4.5,9.2,9.7,9.6c4.5,0.3,8.1-1.2,11-3
					c0.9,1.8,3.3,2.9,5.8,2.4c3.4-0.6,7.2-3.6,10.1-4.2c-0.4,1.4-1.3,4.2-1.3,4.2l4.9,0l3.9-2.2c0,0,3.2-8.9,4.8-13.4H45.7z
					 M13.7,14.1c-4-3.5,1.3-9.4,5.3-5.5L13.7,14.1z M75.7,8.7c-1.4-1.1-3.9-3.4-3.9-3.4s-6.5,4.4-9.6,6.2c0.8-2.1,1.6-4.3,2.3-6.4
					h-8.4c-1.8,5.2-3.7,10.3-5.5,15.5h8.4c0,0,1.6-5.6,2.6-6.9c1.5-2,4.5-0.4,5.5,1.5c2.7-1.4,5.7-3.1,8.4-4.2
					c-1.4,12.5,18.7,14.7,19.6,1.5C96,0.3,78.9-1.4,75.7,8.7z M88.4,16.4l-3-2l-3,2.1l1.1-3.3l-2.9-2.6h3.6l1.1-3.2l1.2,3.2h3.7
					l-3,2.4L88.4,16.4z"/>
				<path class="st10" d="M4.4,33.9c0,1-0.8,1.9-1.9,1.9c-1.1,0-1.9-0.8-1.9-1.9c0-1,0.8-1.8,1.9-1.8C3.6,32,4.4,32.8,4.4,33.9z
					 M1.1,33.9c0,0.8,0.6,1.5,1.4,1.5c0.8,0,1.4-0.7,1.4-1.5c0-0.8-0.6-1.5-1.4-1.5C1.7,32.4,1.1,33,1.1,33.9z M2.2,34.8H1.8V33
					c0.2,0,0.4-0.1,0.7-0.1c0.4,0,0.5,0.1,0.6,0.1c0.1,0.1,0.2,0.2,0.2,0.4c0,0.2-0.2,0.4-0.4,0.4v0c0.2,0.1,0.3,0.2,0.3,0.5
					c0.1,0.3,0.1,0.4,0.1,0.5H2.9c-0.1-0.1-0.1-0.2-0.1-0.5c0-0.2-0.1-0.3-0.4-0.3H2.2L2.2,34.8L2.2,34.8z M2.2,33.8h0.2
					c0.2,0,0.4-0.1,0.4-0.3c0-0.2-0.1-0.3-0.4-0.3c-0.1,0-0.2,0-0.2,0L2.2,33.8z"/>
			</g>
		</g>
	</g>
</g>
</svg>
